<?xml version="1.0" ?><svg enable-background="new 0 0 512 512" id="Layer_1" version="1.1" viewBox="0 0 512 512" xml:space="preserve" xmlns="http://www.w3.org/2000/svg" xmlns:xlink="http://www.w3.org/1999/xlink"><polygon fill="#FED943" points="256,263 243.6,254.4 202,302.1 242.2,289.1 256,336.8 269.8,289.1 310,302.1 268.4,254.4 "/><linearGradient gradientUnits="userSpaceOnUse" id="SVGID_1_" x1="256" x2="256" y1="325.9744" y2="258.3718"><stop offset="0" style="stop-color:#FFFFFF;stop-opacity:0"/><stop offset="0.8543" style="stop-color:#FFFFFF;stop-opacity:0.8543"/><stop offset="1" style="stop-color:#FFFFFF"/></linearGradient><polygon fill="url(#SVGID_1_)" points="244.2,285.3 211.4,295.9 244.1,258.4 256,266.6 267.9,258.4 300.6,295.9 267.8,285.3   256,326 "/><g><polygon fill="#FED943" points="473,104.4 290.6,175.1 298.3,189.4 271.6,189.7 257.2,252.8 402.9,178 365.1,177.8  "/><linearGradient gradientUnits="userSpaceOnUse" id="SVGID_2_" x1="355.5488" x2="355.5488" y1="247.1824" y2="116.6785"><stop offset="0" style="stop-color:#FFFFFF;stop-opacity:0"/><stop offset="0.8543" style="stop-color:#FFFFFF;stop-opacity:0.8543"/><stop offset="1" style="stop-color:#FFFFFF"/></linearGradient><polygon fill="url(#SVGID_2_)" points="274,192.7 303.3,192.3 294.9,176.7 449.6,116.7 355.4,180.7 390.7,181 261.5,247.2  "/><polygon fill="#FED943" points="254.8,252.8 240.4,189.8 213.4,189.7 221.3,175.1 39,104.4 146.9,177.8 109.1,178  "/><linearGradient gradientUnits="userSpaceOnUse" id="SVGID_3_" x1="156.4512" x2="156.4512" y1="247.1824" y2="116.6775"><stop offset="0" style="stop-color:#FFFFFF;stop-opacity:0"/><stop offset="0.8543" style="stop-color:#FFFFFF;stop-opacity:0.8543"/><stop offset="1" style="stop-color:#FFFFFF"/></linearGradient><polygon fill="url(#SVGID_3_)" points="121.3,181 156.6,180.7 62.4,116.7 217.1,176.7 208.4,192.7 238.1,192.7 250.5,247.2  "/></g><g><polygon fill="#FED943" points="362.2,211.9 256,410.2 149.8,211.9 124.2,198.7 256,444.9 387.8,198.7  "/><linearGradient gradientUnits="userSpaceOnUse" id="SVGID_4_" x1="255.9995" x2="255.9995" y1="438.5242" y2="205.7898"><stop offset="0" style="stop-color:#FFFFFF;stop-opacity:0"/><stop offset="0.8543" style="stop-color:#FFFFFF;stop-opacity:0.8543"/><stop offset="1" style="stop-color:#FFFFFF"/></linearGradient><polygon fill="url(#SVGID_4_)" points="131.4,205.8 147.6,214.1 256,416.5 364.4,214.1 380.6,205.8 256,438.5  "/></g><polygon fill="#FED943" points="413.7,115.6 437.1,106.5 456.1,71 287.2,121.3 283,139.6 423.2,97.9 "/><linearGradient gradientUnits="userSpaceOnUse" id="SVGID_5_" x1="368.5903" x2="368.5903" y1="135.2468" y2="75.949"><stop offset="0" style="stop-color:#FFFFFF;stop-opacity:0"/><stop offset="0.8543" style="stop-color:#FFFFFF;stop-opacity:0.8543"/><stop offset="1" style="stop-color:#FFFFFF"/></linearGradient><polygon fill="url(#SVGID_5_)" points="289.7,123.6 450.1,75.9 435,104.1 420.2,109.9 429.2,93 287.1,135.2 "/><polygon fill="#FED943" points="98.3,115.6 88.8,97.9 229,139.6 224.8,121.3 55.9,71 74.9,106.5 "/><linearGradient gradientUnits="userSpaceOnUse" id="SVGID_6_" x1="143.4097" x2="143.4097" y1="135.2468" y2="75.949"><stop offset="0" style="stop-color:#FFFFFF;stop-opacity:0"/><stop offset="0.8543" style="stop-color:#FFFFFF;stop-opacity:0.8543"/><stop offset="1" style="stop-color:#FFFFFF"/></linearGradient><polygon fill="url(#SVGID_6_)" points="82.8,93 91.8,109.9 77,104.1 61.9,75.9 222.3,123.6 224.9,135.2 "/><polygon fill="#FED943" points="256,139.1 283.9,104.1 274,147.7 318.7,147.7 278.4,167.2 286.6,182.5 266,182.8 256,226.4   246,182.8 225.1,182.7 233.6,167.2 193.3,147.7 238,147.7 228.1,104.1 "/><linearGradient gradientUnits="userSpaceOnUse" id="SVGID_7_" x1="256" x2="256" y1="212.9392" y2="116.2136"><stop offset="0" style="stop-color:#FFFFFF;stop-opacity:0"/><stop offset="0.8543" style="stop-color:#FFFFFF;stop-opacity:0.8543"/><stop offset="1" style="stop-color:#FFFFFF"/></linearGradient><polygon fill="url(#SVGID_7_)" points="248.4,179.8 230.2,179.7 237.7,165.8 206.4,150.7 241.8,150.7 233.9,116.2 256,143.9   278.1,116.2 270.2,150.7 305.6,150.7 274.3,165.8 281.7,179.6 263.6,179.8 256,212.9 "/></svg>