<?xml version="1.0" ?><svg enable-background="new 0 0 512 512" id="Layer_1" version="1.1" viewBox="0 0 512 512" xml:space="preserve" xmlns="http://www.w3.org/2000/svg" xmlns:xlink="http://www.w3.org/1999/xlink"><g><path d="M95.6,256.9H76.9c0,72.2,42.9,136.9,109.4,165l7.3-17.2C134.1,379.5,95.6,321.5,95.6,256.9z" fill="#C23117"/><linearGradient gradientUnits="userSpaceOnUse" id="SVGID_1_" x1="134.8296" x2="134.8296" y1="418.2322" y2="259.6881"><stop offset="0" style="stop-color:#FFFFFF;stop-opacity:0"/><stop offset="0.8543" style="stop-color:#FFFFFF;stop-opacity:0.6834"/><stop offset="1" style="stop-color:#FFFFFF;stop-opacity:0.8"/></linearGradient><path d="M184.8,418.2c-63.1-27.9-104-89.6-105.1-158.5h13.1c1.1,63.7,38.9,120.7,97.1,146.5L184.8,418.2z" fill="url(#SVGID_1_)"/><path d="M331.4,398.6l8.8,16.5c58.6-31.2,95-91.8,95-158.2h-18.7C416.5,316.3,383.9,370.6,331.4,398.6z" fill="#C23117"/><linearGradient gradientUnits="userSpaceOnUse" id="SVGID_2_" x1="383.7427" x2="383.7427" y1="411.2446" y2="259.6881"><stop offset="0" style="stop-color:#FFFFFF;stop-opacity:0"/><stop offset="0.8543" style="stop-color:#FFFFFF;stop-opacity:0.6834"/><stop offset="1" style="stop-color:#FFFFFF;stop-opacity:0.8"/></linearGradient><path d="M335.2,399.7c51.1-28.4,83.1-81.6,84.1-140h13.1c-1,63.3-35.6,120.9-91,151.6L335.2,399.7z" fill="url(#SVGID_2_)"/><path d="M256,96.5c44,0,85,17.5,115.6,49.2l13.5-13C351,97.3,305.2,77.8,256,77.8c-25,0-49.3,5.1-72,15.1   c-22,9.6-41.5,23.4-58.1,40.9l13.6,12.9C170.2,114.2,211.5,96.5,256,96.5z" fill="#C23117"/><linearGradient gradientUnits="userSpaceOnUse" id="SVGID_3_" x1="255.5257" x2="255.5257" y1="142.6136" y2="80.5679"><stop offset="0" style="stop-color:#FFFFFF;stop-opacity:0"/><stop offset="0.8543" style="stop-color:#FFFFFF;stop-opacity:0.6834"/><stop offset="1" style="stop-color:#FFFFFF;stop-opacity:0.8"/></linearGradient><path d="M130,133.6c15.9-16.3,34.4-29.1,55.2-38.2c22.4-9.8,46.2-14.8,70.9-14.8c47.4,0,91.7,18.5,125.1,52   l-9.4,9.1c-30.8-31-71.8-48-115.6-48c-44.3,0-85.6,17.4-116.6,49L130,133.6z" fill="url(#SVGID_3_)"/><path d="M256.5,326.9c0,0,15-43.7,54.9-69.8c5.3-3.5,32.3,13,37.7,9.5c5.8-3.8,11.6-7.6,17.3-11.3   c32.8-21.4,61.5-40.2,66.5-43.8c-26.6,3.1-32.1-7-32.1-7c58.1-26.7,33.6-72.3,33.6-72.3c1.8,20.8-23,29.3-23,29.3   c12.7-23.2-8.7-59.2-8.7-59.2c12.6,52.5-68,103.4-114.8,128.2c-3.4,8.2-10,15-18.4,18.5l-13.1,63.6L243.4,249   c-8.4-3.5-15-10.3-18.4-18.5c-46.8-24.7-127.4-75.7-114.8-128.2c0,0-21.4,36-8.7,59.2c0,0-24.9-8.5-23-29.3   c0,0-24.5,45.5,33.6,72.3c0,0-5.5,10.1-32.1,7c5,3.5,33.7,22.3,66.5,43.8c5.7,3.7,11.5,7.5,17.3,11.3c5.4,3.5,32.4-13,37.7-9.5   C241.5,283.1,256.5,326.9,256.5,326.9z" fill="#C23117"/><linearGradient gradientUnits="userSpaceOnUse" id="SVGID_4_" x1="256.4809" x2="256.4809" y1="319.3449" y2="117.2215"><stop offset="0" style="stop-color:#FFFFFF;stop-opacity:0"/><stop offset="0.92" style="stop-color:#FFFFFF;stop-opacity:0.736"/><stop offset="1" style="stop-color:#FFFFFF;stop-opacity:0.8"/></linearGradient><path d="M256.5,319.3c-5.9-13.4-22-44.1-53.4-64.6c-1-0.6-2.2-0.9-3.6-0.9c-4.2,0-10.8,2.6-17.7,5.4   c-5.9,2.4-12.6,5-15.7,5c-0.5,0-0.7-0.1-0.7-0.1c-5.8-3.8-11.6-7.6-17.3-11.3c-28.1-18.4-47.5-31.1-58-38c19.1-0.2,24-8.2,24.5-9.1   l1.4-2.6l-2.7-1.3c-18.6-8.5-30.3-19.9-34.9-33.6c-3.1-9.3-2.4-18-0.9-24.5c1.9,4.8,5.3,9.2,10.2,13c6.3,5,12.8,7.2,13,7.3l6.8,2.3   l-3.5-6.3c-7.1-13-2.5-30.8,2.3-42.9c3.5,47.8,72.3,91.8,116.6,115.3c3.7,8.1,10.2,14.7,18.1,18.5l12.8,62.2h5.5L272,251   c8-3.7,14.5-10.4,18.1-18.5C334.5,209,403.3,165,406.8,117.2c4.8,12.1,9.4,29.9,2.3,42.9l-3.5,6.3l6.8-2.3   c0.9-0.3,17.6-6.2,23.2-20.2c1.4,6.4,2.1,15.2-1,24.4c-4.6,13.8-16.4,25.1-34.9,33.6l-2.7,1.3l1.4,2.6c0.5,0.9,5.4,8.9,24.5,9.1   c-10.5,7-29.9,19.7-58,38c-5.7,3.7-11.5,7.5-17.3,11.3c0,0,0,0,0,0c0,0-0.2,0-0.6,0c-3.2,0-9.8-2.7-15.7-5   c-7-2.8-13.5-5.4-17.7-5.4c-1.5,0-2.7,0.3-3.6,0.9C278.5,275.2,262.4,305.9,256.5,319.3z" fill="url(#SVGID_4_)"/><path d="M248.2,244.8l8.3,40l8.3-40c11.8-3.5,20.3-14.5,20.3-27.4c0-15.8-12.8-28.6-28.6-28.6   c-15.8,0-28.6,12.8-28.6,28.6C227.9,230.4,236.5,241.3,248.2,244.8z" fill="#C23117"/><linearGradient gradientUnits="userSpaceOnUse" id="SVGID_5_" x1="256.4874" x2="256.4874" y1="270.9524" y2="191.6594"><stop offset="0" style="stop-color:#FFFFFF;stop-opacity:0"/><stop offset="0.8543" style="stop-color:#FFFFFF;stop-opacity:0.6834"/><stop offset="1" style="stop-color:#FFFFFF;stop-opacity:0.8"/></linearGradient><path d="M250.6,242.6l-1.6-0.5c-10.8-3.3-18.3-13.4-18.3-24.7c0-14.2,11.6-25.8,25.8-25.8   c14.2,0,25.8,11.6,25.8,25.8c0,11.3-7.5,21.4-18.3,24.7l-1.6,0.5l-5.8,28.3L250.6,242.6z" fill="url(#SVGID_5_)"/><path d="M243.1,173.7c-2.5-6.7,7.8-12.1,7.8-12.1c12.4,16.1-1.7,18.2-1.7,18.2c20.2,13.1,33-13.3,25-29   c-3-5.8-6-10.3-3.8-17.5c-4.7,2.7-9,7.7-7.1,14.2c3.7,12.5-14.1,13.2-7.4-5.1c6.7-18.3-5-29.9-5-29.9s1.9,11.1-10.8,29.1   C227.5,159.7,243.1,173.7,243.1,173.7z" fill="#C23117"/><linearGradient gradientUnits="userSpaceOnUse" id="SVGID_6_" x1="255.8831" x2="255.8831" y1="180.5876" y2="120.9836"><stop offset="0" style="stop-color:#FFFFFF;stop-opacity:0"/><stop offset="0.8543" style="stop-color:#FFFFFF;stop-opacity:0.6834"/><stop offset="1" style="stop-color:#FFFFFF;stop-opacity:0.8"/></linearGradient><path d="M259.7,180.6c-1.3,0-2.7-0.2-4.2-0.7c1-0.9,1.9-2,2.5-3.5c1.7-4.3,0.1-9.8-5-16.4l-1.4-1.9l-2.1,1.1   c-2.8,1.5-6.5,4.2-8.4,7.7c-3.1-5-5.8-13.6,1.2-23.6c6.6-9.3,9.4-17,10.6-22.4c2.1,4.7,3.5,11.8,0.3,20.6   c-2.9,7.9-1.5,12.4,0.1,14.8c1.4,2,3.5,3.1,5.8,3.1c0,0,0,0,0,0c2.2,0,4.3-1.1,5.7-2.9c1.8-2.5,2.2-5.9,1.1-9.7   c-0.8-2.6-0.2-4.8,1-6.6c0.5,3.8,2.2,7,3.8,10.1c0.3,0.6,0.6,1.1,0.9,1.7c3.2,6.3,2.7,15.2-1.2,21.6   C268.9,176.3,265.4,180.6,259.7,180.6z" fill="url(#SVGID_6_)"/><path d="M310.4,428.7c0,0,0-2.1-1-11.2c-4.3,11.5-26.1,25.9-39.8,14.3c-12.5-10.6,1.9-24,1.9-24s-2.3,7.1,10.9,10   c0,0-8.3-10.2-2.5-20.2c27.9-47.7-23.3-34-7.2-73.9c-8.9,6.7-35.9,23.6-30.2,38.5l0,0c13.6,20.7-4.8,21.4-17.2,31.2   c-14.9,11.8-24.3,38-10,52.3c0,0-3.7-19.9,5.6-22.4c0,0,13.4,45.5,61.3,36.7c46.8-8.6,47.7-46,38.3-57.2   C320.7,402.9,324.7,425,310.4,428.7z" fill="#C23117"/><linearGradient gradientUnits="userSpaceOnUse" id="SVGID_7_" x1="266.79" x2="266.79" y1="458.4043" y2="331.0244"><stop offset="0" style="stop-color:#FFFFFF;stop-opacity:0"/><stop offset="0.8543" style="stop-color:#FFFFFF;stop-opacity:0.6834"/><stop offset="1" style="stop-color:#FFFFFF;stop-opacity:0.8"/></linearGradient><path d="M270.4,458.4c-35.7,0-46.3-34.4-46.7-35.8l-0.8-2.6l-2.6,0.7c-5.9,1.6-7.9,7.8-8.3,13.7   c-0.8-3.1-1-6.1-0.8-8.5c0.6-11,7.1-23.1,16-30.1c2.9-2.3,6.2-4.1,9.4-5.8c6.1-3.3,11.8-6.4,13.3-12.4c1.1-4.5-0.4-9.7-4.7-16.4   c-3.5-10,12.3-22.6,22.5-30c-3.1,14.3,3.6,21,9.6,27c7.7,7.7,14.3,14.4,0.4,38.2c-3.5,6-2.7,11.9-1.2,16.3   c-0.8-0.5-1.3-1.1-1.7-1.7c-0.7-1.2-0.5-2.1-0.5-2.2l-4.6-2.8c-0.3,0.3-8.1,7.6-7.9,16.4c0.1,4.4,2.1,8.4,6.1,11.7   c3.9,3.3,8.5,5,13.8,5c0,0,0,0,0,0c9.7,0,19.8-5.9,25.9-12.9c0.2,2.1,0.2,2.7,0.2,2.8l0.1,3.5l3.4-0.9c6.4-1.7,9.7-6.2,11.4-11.2   c-0.2,3.1-0.8,6.4-2,9.7c-5.1,14-18.8,23.7-38.7,27.4C277.9,458,274.1,458.4,270.4,458.4z" fill="url(#SVGID_7_)"/></g></svg>